<svg width="25" height="25" viewBox="0 0 25 25" fill="none" xmlns="http://www.w3.org/2000/svg">
<g id="flat-color-icons:google">
<path id="Vector" d="M22.3172 10.6129H21.5117V10.5714H12.5117V14.5714H18.1632C17.3387 16.8999 15.1232 18.5714 12.5117 18.5714C9.19822 18.5714 6.51172 15.8849 6.51172 12.5714C6.51172 9.25793 9.19822 6.57143 12.5117 6.57143C14.0412 6.57143 15.4327 7.14843 16.4922 8.09093L19.3207 5.26243C17.5347 3.59793 15.1457 2.57143 12.5117 2.57143C6.98922 2.57143 2.51172 7.04893 2.51172 12.5714C2.51172 18.0939 6.98922 22.5714 12.5117 22.5714C18.0342 22.5714 22.5117 18.0939 22.5117 12.5714C22.5117 11.9009 22.4427 11.2464 22.3172 10.6129Z" fill="#FFC107"/>
<path id="Vector_2" d="M3.66473 7.91693L6.95023 10.3264C7.83923 8.12543 9.99223 6.57143 12.5117 6.57143C14.0412 6.57143 15.4327 7.14843 16.4922 8.09093L19.3207 5.26243C17.5347 3.59793 15.1457 2.57143 12.5117 2.57143C8.67073 2.57143 5.33973 4.73993 3.66473 7.91693Z" fill="#FF3D00"/>
<path id="Vector_3" d="M12.5117 22.5714C15.0947 22.5714 17.4417 21.5829 19.2162 19.9754L16.1212 17.3564C15.0835 18.1456 13.8155 18.5725 12.5117 18.5714C9.91072 18.5714 7.70222 16.9129 6.87022 14.5984L3.60922 17.1109C5.26422 20.3494 8.62522 22.5714 12.5117 22.5714Z" fill="#4CAF50"/>
<path id="Vector_4" d="M22.3172 10.6129H21.5117V10.5714H12.5117V14.5714H18.1632C17.7688 15.6796 17.0584 16.648 16.1197 17.3569L16.1212 17.3559L19.2162 19.9749C18.9972 20.1739 22.5117 17.5714 22.5117 12.5714C22.5117 11.9009 22.4427 11.2464 22.3172 10.6129Z" fill="#1976D2"/>
</g>
</svg>
